# xmcd
#
# Track frame offsets: 
#        150
#        12760
#        24777
#        37449
#        47484
#        67245
#        78046
#        89873
#        103660
#        114244
#        123508
#        136224
#        147766
#        161154
#        173982
#        185321
#        198738
#        210686
#        221510
#        230234
#        241599
#        252839
#        263852
#        273728
#        283164
#        293806
#        304426
#        315379
#        326894
#        337659
#
# Disc length: 4653 seconds
#
# Revision: 5
# Processed by: cddbd v1.5.2PL0 Copyright (c) Steve Scherf et al.
# Submitted via: ExactAudioCopy v0.99pb5
#
DISCID=c8122b1e
DTITLE=Various Artist - The Golden Age Of American Rock 'n' Roll - Special Co
DTITLE=untry Edition
DYEAR=2002
DGENRE=Country
TTITLE0=George Jones - White lightning
TTITLE1=Bobby Edwards with The Four Young Men - You're the reason
TTITLE2=Bobby Bare - Detroit City
TTITLE3=George Hamilton IV - Abilene
TTITLE4=Marty Robbins - El Paso
TTITLE5=Hank Locklin - Please help me, I'm falling
TTITLE6=Johnny Cash - Ring of fire
TTITLE7=Jimmy Dean - Big Bad John
TTITLE8=Leroy Van Dyke - Walk on by
TTITLE9=Bob Luman - Let's think about living
TTITLE10=Patsy Cline - I fall to pieces
TTITLE11=Ray Price - Crazy arms
TTITLE12=Carl Butler - Don't let me cross over
TTITLE13=Bill Anderson - Still
TTITLE14=Don Gibson - Oh lonesome me
TTITLE15=Claude King - Wolverton mountain
TTITLE16=Wanda Jackson - Right or wrong
TTITLE17=Jim Reeves - He'll have to go
TTITLE18=Webb Pierce - I ain't never
TTITLE19=Johnny Horton - The battle of New Orleans
TTITLE20=Stonewall Jackson - Waterloo
TTITLE21=Faron Young - Hello walls
TTITLE22=Ned Miller - From a jack to a king
TTITLE23=Burl Ives - A little bitty tear
TTITLE24=Statler Brothers - Flowers on the wall
TTITLE25=Cowboy Copas - Alabam
TTITLE26=Ferlin Husky And His Hush Puppies - Gone
TTITLE27=Marvin Rainwater - Gonna find me a bluebird
TTITLE28=Dave Dudley - Six days on the road
TTITLE29=Roger Miller - King of the road
EXTD=CD # =CDCHD 845\nUPC # =0 29667 18452 6
EXTT0=
EXTT1=
EXTT2=
EXTT3=
EXTT4=
EXTT5=
EXTT6=
EXTT7=
EXTT8=
EXTT9=
EXTT10=
EXTT11=
EXTT12=
EXTT13=
EXTT14=
EXTT15=
EXTT16=
EXTT17=
EXTT18=
EXTT19=
EXTT20=
EXTT21=
EXTT22=
EXTT23=
EXTT24=
EXTT25=
EXTT26=
EXTT27=
EXTT28=
EXTT29=
PLAYORDER=
